# AST/ASF file generated using VICON BodyLanguage
# -----------------------------------------------
:version 1.10
:name VICON
:units
  mass 1.0
  length 0.45
  angle deg
:documentation
   .ast/.asf automatically generated from VICON data using
   VICON BodyBuilder and BodyLanguage model FoxedUp or BRILLIANT.MOD
:root
   order TX TY TZ RX RY RZ
   axis XYZ
   position 0 0 0  
   orientation 0 0 0 
:bonedata
  begin
     id 1 
     name lhipjoint
     direction 0.64773 -0.699417 0.302095 
     length 2.48597 
     axis 0 0 0  XYZ
  end
  begin
     id 2 
     name lfemur
     direction 0.34202 -0.939693 0  
     length 6.71947  
     axis 0 0 20  XYZ
    dof rx ry rz
    limits (-160.0 20.0)
           (-70.0 70.0)
           (-60.0 70.0)
  end
  begin
     id 3 
     name ltibia
     direction 0.34202 -0.939693 0   
     length 8.08777   
     axis 0 0 20   XYZ
    dof rx
    limits (-10.0 170.0)
  end
  begin
     id 4 
     name lfoot
     direction 0.0808503 -0.222134 0.971658   
     length 2.08264   
     axis -90 7.62852e-016 20   XYZ
    dof rx rz
    limits (-45.0 90.0)
           (-70.0 20.0)
  end
  begin
     id 5 
     name ltoes
     direction 1.53502e-011 -4.22007e-011 1   
     length 1.04662   
     axis -90 7.62852e-016 20   XYZ
    dof rx
    limits (-90.0 20.0)
  end
  begin
     id 6 
     name rhipjoint
     direction -0.610924 -0.726792 0.313919   
     length 2.39233  
     axis 0 0 0  XYZ 
  end
  begin
     id 7 
     name rfemur
     direction -0.34202 -0.939693 0   
     length 6.96955   
     axis 0 0 -20   XYZ
    dof rx ry rz
    limits (-160.0 20.0)
           (-70.0 70.0)
           (-70.0 60.0)
  end
  begin
     id 8 
     name rtibia
     direction -0.34202 -0.939693 0   
     length 8.19584   
     axis 0 0 -20   XYZ
    dof rx
    limits (-10.0 170.0)
 end
 begin
     id 9 
     name rfoot
     direction -0.077777 -0.213691 0.9738   
     length 2.07539  
     axis -90 -7.62852e-016 -20   XYZ
    dof rx rz
    limits (-45.0 90.0)
           (-20.0 70.0)
  end
  begin
     id 10 
     name rtoes
     direction -1.53558e-011 -4.22006e-011 1   
     length 1.04381   
     axis -90 -7.62852e-016 -20   XYZ
    dof rx
    limits (-90.0 20.0)
  end
  begin
     id 11 
     name lowerback
     direction -0.00971646 0.996074 0.0879841   
     length 1.67643   
     axis 0 0 0   XYZ
    dof rx ry rz
    limits (-20.0 45.0)
           (-30.0 30.0)
           (-30.0 30.0)
  end
  begin
     id 12 
     name upperback
     direction 0.0127391 0.991676 0.128127   
     length 1.63741   
     axis 0 0 0   XYZ
    dof rx ry rz
    limits (-20.0 45.0)
           (-30.0 30.0)
           (-30.0 30.0)
  end
  begin
     id 13 
     name thorax
     direction 0.0167583 0.996049 0.0872067   
     length 1.65931   
     axis 0 0 0   XYZ
    dof rx ry rz
    limits (-20.0 45.0)
           (-30.0 30.0)
           (-30.0 30.0)
  end
  begin
     id 14 
     name lowerneck
     direction -0.0317829 0.998312 0.0486079   
     length 1.79021   
     axis 0 0 0   XYZ
    dof rx ry rz
    limits (-20.0 45.0)
           (-30.0 30.0)
           (-30.0 30.0)
  end
  begin
     id 15 
     name upperneck
     direction 0.0896851 0.972452 -0.215159   
     length 1.78797   
     axis 0 0 0   XYZ
    dof rx ry rz
    limits (-20.0 45.0)
           (-30.0 30.0)
           (-30.0 30.0)
  end
  begin
     id 16
     name head
     direction 0.0310949 0.996503 -0.0775582  
     length 1.81549  
     axis 0 0 0   XYZ
    dof rx ry rz
    limits (-20.0 45.0)
           (-30.0 30.0)
           (-30.0 30.0)
  end
  begin
     id 17 
     name lclavicle
     direction 0.853638 0.502051 -0.138733  
     length 3.31627  
     axis 0 0 0   XYZ
    dof ry rz
    limits (-20.0 10.0)
           (0.0 20.0)
  end
  begin
     id 18 
     name lhumerus
     direction 1 -4.48962e-011 -1.41788e-018   
     length 5.54893   
     axis 180 -30 -90   XYZ
    dof rx ry rz
    limits (-60.0 90.0)
           (-90.0 90.0)
           (-90.0 90.0)
  end
  begin
     id 19
     name lradius
     direction 1 -4.48962e-011 -4.95754e-027   
     length 3.02898   
     axis 180 -30 -90   XYZ
    dof rx
    limits (-10.0 170.0)
  end
  begin
     id 20
     name lwrist
     direction 1 -4.48952e-011 -1.03764e-026   
     length 1.51449   
     axis 9.09556e-015 90 90   XYZ
    dof ry
    limits (-180.0 0.0)
 end
  begin
     id 21 
     name lhand
     direction 1 -4.4902e-011 -2.07528e-026   
     length 0.640951   
     axis 1.3242e-014 90 90   XYZ
    dof rx rz
    limits (-90.0 90.0)
           (-45.0 45.0)
  end
  begin
     id 22 
     name lfingers
     direction 1 -4.49014e-011 -4.15056e-026   
     length 0.516751   
     axis 2.64841e-014 90 90   XYZ
    dof rx
    limits (0.0 90.0)
  end
  begin
     id 23
     name lthumb
     direction 0.707107 -6.35008e-011 0.707107   
     length 0.741954   
     axis -90 45 2.85299e-015   XYZ
    dof rx rz
    limits (-45.0 45.0)
           (-45.0 45.0)
  end
  begin
     id 24 
     name rclavicle
     direction -0.888531 0.455324 -0.0565039   
     length 3.20126  
     axis 0 0 0   XYZ 
    dof ry rz
    limits (-10.0 20.0)
           (-20.0 0.0)
  end
  begin
     id 25 
     name rhumerus
     direction -1 -4.48946e-011 -8.98298e-028  
     length 5.3519   
     axis 180 30 90   XYZ
    dof rx ry rz
    limits (-90.0 60.0)
           (-90.0 90.0)
           (-90.0 90.0)
  end
  begin
     id 26 
     name rradius
     direction -1 -4.4899e-011 -3.18779e-027   
     length 3.02531   
     axis 180 30 90   XYZ
    dof rx
    limits (-10.0 170.0)
  end
  begin
     id 27 
     name rwrist
     direction -1 -4.4897e-011 -1.03764e-026   
     length 1.51266   
     axis 9.09556e-015 -90 -90   XYZ
    dof ry
    limits (-180.0 0.0)
  end
  begin
     id 28
     name rhand
     direction -1 -4.48941e-011 -2.07528e-026   
     length 0.78389   
     axis 1.3242e-014 -90 -90   XYZ
    dof rx rz
    limits (-90.0 90.0)
           (-45.0 45.0)
  end
  begin
     id 29
     name rfingers
     direction -1 -4.49012e-011 -4.15056e-026   
     length 0.631992   
     axis 2.64841e-014 -90 -90   XYZ
    dof rx
    limits (0.0 90.0)
  end
  begin
     id 30
     name rthumb
     direction -0.707107 -6.3496e-011 0.707107   
     length 0.907418   
     axis -90 -45 -2.85299e-015   XYZ
    dof rx rz
    limits (-45.0 45.0)
           (-45.0 45.0)
  end
:hierarchy
  begin
    root lhipjoint rhipjoint lowerback
    lhipjoint lfemur
    lfemur ltibia
    ltibia lfoot
    lfoot ltoes
    rhipjoint rfemur
    rfemur rtibia
    rtibia rfoot
    rfoot rtoes
    lowerback upperback
    upperback thorax
    thorax lowerneck lclavicle rclavicle
    lowerneck upperneck
    upperneck head
    lclavicle lhumerus
    lhumerus lradius
    lradius lwrist
    lwrist lhand lthumb
    lhand lfingers
    rclavicle rhumerus
    rhumerus rradius
    rradius rwrist
    rwrist rhand rthumb
    rhand rfingers
  end

#!OML:ASF E:\Style3\Style3.ASF
:FULLY-SPECIFIED
:DEGREES
1115
root -0.0517159 17.8599 0.508597 -29.5983 87.3848 -46.5799
lowerback -8.50184 -1.67097 -0.964223
upperback -11.8314 -1.47293 1.62374
thorax -7.64365 -0.299047 2.18921
lowerneck -12.6967 -2.74584 -5.87706
upperneck 23.7512 -4.51307 9.51401
head 9.97935 -1.39152 3.82512
rclavicle -7.96381e-015 9.44227e-016
rhumerus -47.0486 7.51962 -89.4669
rradius 21.3049
rwrist -9.69439
rhand -16.5553 22.1399
rfingers 7.12502
rthumb 9.66437 -7.61845
lclavicle -7.96381e-015 9.44227e-016
lhumerus -49.2951 24.8737 62.6746
lradius 15.5605
lwrist 14.1779
lhand -2.51413 17.8684
lfingers 7.12502
lthumb 23.1802 46.4936
rfemur -16.1638 12.8423 17.1558
rtibia 12.284
rfoot -11.9006 -18.3264
rtoes -18.5208
lfemur 0 0 0
ltibia 0
lfoot 0 0
ltoes 0
1116
root -0.0462176 17.8592 0.509174 -30.2561 87.4252 -47.2362
lowerback -8.5531 -1.65786 -0.956813
upperback -11.8183 -1.45545 1.61466
thorax -7.6013 -0.291788 2.17445
lowerneck -12.7509 -2.79463 -5.90324
upperneck 23.8303 -4.57645 9.50662
head 10.0246 -1.42065 3.82137
rclavicle 2.14936e-015 -6.06293e-015
rhumerus -46.9624 5.87556 -88.1696
rradius 20.3801
rwrist -8.4184
rhand -16.003 22.4967
rfingers 7.12502
rthumb 10.1973 -7.23617
lclavicle 2.14936e-015 -6.06293e-015
lhumerus -50.8466 28.445 58.3565
lradius 13.8022
lwrist 8.58337
lhand -2.77298 17.5602
lfingers 7.12502
lthumb 22.9318 46.2164
rfemur -16.1101 12.8009 17.1675
rtibia 12.2527
rfoot -11.9034 -18.3306
rtoes -18.5258
lfemur 0 0 0
ltibia 0
lfoot 0 0
ltoes 0
1117
root -0.0415607 17.8595 0.510799 -32.2227 87.4693 -49.205
lowerback -8.56488 -1.66711 -0.927213
upperback -11.8269 -1.46579 1.63383
thorax -7.60403 -0.297508 2.17779
lowerneck -12.7497 -2.81378 -5.95395
upperneck 23.8586 -4.59419 9.51163
head 10.0375 -1.4321 3.83065
rclavicle -1.75924e-014 1.00386e-014
rhumerus -47.0478 4.51711 -87.0478
rradius 19.6587
rwrist -7.38168
rhand -15.7889 22.9254
rfingers 7.12502
rthumb 10.4038 -6.79717
lclavicle -1.75924e-014 1.00386e-014
lhumerus -53.3896 32.4514 52.8542
lradius 12.3308
lwrist 2.23653
lhand -3.09338 17.3853
lfingers 7.12502
lthumb 22.6243 46.0793
rfemur -16.0892 12.8348 17.2192
rtibia 12.2839
rfoot -12.045 -18.4203
rtoes -17.9767
lfemur 0 0 0
ltibia 0
lfoot 0 0
ltoes 0
1118
root -0.0375776 17.8591 0.511348 -33.6115 87.5144 -50.598
lowerback -8.56994 -1.67486 -0.91754
upperback -11.8421 -1.4738 1.64078
thorax -7.61797 -0.300752 2.17963
lowerneck -12.7229 -2.8358 -6.00382
upperneck 23.8533 -4.62584 9.55993
head 10.0356 -1.4462 3.85273
rclavicle -4.13721e-015 6.01324e-015
rhumerus -47.2217 3.46205 -86.1771
rradius 19.1691
rwrist -6.55476
rhand -15.7477 22.8816
rfingers 7.12502
rthumb 10.4436 -6.83899
lclavicle -4.13721e-015 6.01324e-015
lhumerus -57.8284 37.4161 44.6723
lradius 11.0443
lwrist -5.94356
lhand -2.83437 16.8027
lfingers 7.12502
lthumb 22.8729 45.4662
rfemur -16.081 12.8291 17.2426
rtibia 12.3229
rfoot -12.1302 -18.4689
rtoes -17.747
lfemur 0 0 0
ltibia 0
lfoot 0 0
ltoes 0
1119
root -0.0355265 17.8574 0.51037 -33.0841 87.5791 -50.042
lowerback -8.51457 -1.68074 -0.966658
upperback -11.8582 -1.48082 1.62301
thorax -7.66611 -0.300303 2.1896
lowerneck -12.717 -2.84053 -5.98228
upperneck 23.892 -4.63479 9.54359
head 10.0483 -1.44894 3.84325
rclavicle -2.48481e-015 -3.62782e-015
rhumerus -47.3751 2.44759 -85.3217
rradius 18.6657
rwrist -5.75307
rhand -15.5772 22.8236
rfingers 7.12502
rthumb 10.608 -6.88862
lclavicle -2.48481e-015 -3.62782e-015
lhumerus -57.3659 37.6531 44.9132
lradius 9.75673
lwrist -5.78972
lhand -3.88043 17.2797
lfingers 7.12502
lthumb 21.8688 46.0639
rfemur -16.0769 12.7603 17.1855
rtibia 12.3853
rfoot -12.0576 -18.4715
rtoes -18.3599
lfemur 0 0 0
ltibia 0
lfoot 0 0
ltoes 0
1120
root -0.0348801 17.8559 0.508106 -34.9094 87.669 -51.8566
lowerback -8.47707 -1.72012 -0.927878
upperback -11.8675 -1.53457 1.62131
thorax -7.69632 -0.329869 2.16611
lowerneck -12.7332 -2.82869 -5.9648
upperneck 23.9204 -4.62005 9.53278
head 10.0596 -1.4406 3.83904
rclavicle -3.23149e-014 -1.30701e-014
rhumerus -47.4868 1.37735 -84.3885
rradius 18.1643
rwrist -4.91179
rhand -15.2562 22.9303
rfingers 7.12502
rthumb 10.9176 -6.76589
lclavicle -3.23149e-014 -1.30701e-014
lhumerus -57.0116 37.8045 45.0179
lradius 8.59722
lwrist -5.68671
lhand -4.99191 17.915
lfingers 7.12502
lthumb 20.8012 46.82
rfemur -16.0922 12.6841 17.1863
rtibia 12.4666
rfoot -12.1055 -18.5137
rtoes -18.3623
lfemur 0 0 0
ltibia 0
lfoot 0 0
ltoes 0
1121
root -0.0337611 17.8558 0.504483 -38.2327 87.8455 -55.2004
lowerback -8.48095 -1.78453 -0.871381
upperback -11.87 -1.62321 1.59344
thorax -7.695 -0.379962 2.10331
lowerneck -12.7816 -2.83586 -5.99306
upperneck 23.9203 -4.63355 9.57583
head 10.0721 -1.44372 3.85768
rclavicle -1.66979e-014 5.1684e-015
rhumerus -47.637 0.547186 -83.6784
rradius 17.8369
rwrist -4.23344
rhand -15.1616 22.9894
rfingers 7.12502
rthumb 11.0089 -6.7019
lclavicle -1.66979e-014 5.1684e-015
lhumerus -56.7023 37.9059 45.1023
lradius 7.6011
lwrist -5.8048
lhand -6.15519 18.3568
lfingers 7.12502
lthumb 19.6832 47.3803
rfemur -16.1331 12.536 17.1607
rtibia 12.5696
rfoot -12.1865 -18.5818
rtoes -18.2129
lfemur 0 0 0
ltibia 0
lfoot 0 0
ltoes 0
1122
root -0.0322383 17.8558 0.505287 -40.5555 87.9545 -57.561
lowerback -8.49924 -1.818 -0.892881
upperback -11.8874 -1.66503 1.58502
thorax -7.702 -0.398237 2.10537
lowerneck -12.8044 -2.86227 -6.01615
upperneck 23.9159 -4.66789 9.58645
head 10.079 -1.46023 3.86094
rclavicle 1.53561e-014 3.97569e-016
rhumerus -47.8521 -0.111054 -83.1054
rradius 17.6476
rwrist -3.72588
rhand -15.1591 22.973
rfingers 7.12502
rthumb 11.0113 -6.71817
lclavicle 1.53561e-014 3.97569e-016
lhumerus -56.3632 37.9585 45.2301
lradius 6.5986
lwrist -6.22043
lhand -7.16431 18.2704
lfingers 7.12502
lthumb 18.7128 47.3903
rfemur -16.2046 12.4868 17.1399
rtibia 12.6705
rfoot -12.3123 -18.6361
rtoes -18.0252
lfemur 0 0 0
ltibia 0
lfoot 0 0
ltoes 0
1123
root -0.029935 17.8567 0.508672 -40.6066 88.0202 -57.6677
lowerback -8.52886 -1.83495 -0.963891
upperback -11.9285 -1.68156 1.56556
thorax -7.72917 -0.399082 2.12396
lowerneck -12.8049 -2.87954 -6.0397
upperneck 23.9438 -4.69983 9.63568
head 10.094 -1.47035 3.87978
rclavicle -1.55052e-014 1.76421e-014
rhumerus -48.1516 -0.612443 -82.7039
rradius 17.6475
rwrist -3.49619
rhand -15.1202 22.9086
rfingers 7.12502
rthumb 11.0488 -6.78063
lclavicle -1.55052e-014 1.76421e-014
lhumerus -56.2217 37.9081 45.2486
lradius 5.92994
lwrist -6.93399
lhand -8.07611 18.1247
lfingers 7.12502
lthumb 17.8356 47.3268
rfemur -16.3164 12.5495 17.0746
rtibia 12.7782
rfoot -12.3557 -18.7501
rtoes -17.798
lfemur 0 0 0
ltibia 0
lfoot 0 0
ltoes 0
